<mxfile host="app.diagrams.net" modified="2022-12-08T02:47:04.417Z" agent="5.0 (Windows NT 10.0; Win64; x64) AppleWebKit/537.36 (KHTML, like Gecko) Chrome/107.0.0.0 Safari/537.36 Edg/107.0.1418.62" etag="FDGyfipKuKcFENYpjPhR" version="20.3.0" type="github">
  <diagram name="Page-1" id="d9b1e647-80fa-b4a2-5024-87a742678bcc">
    <mxGraphModel dx="2475" dy="794" grid="1" gridSize="10" guides="1" tooltips="1" connect="1" arrows="1" fold="1" page="1" pageScale="1" pageWidth="1100" pageHeight="850" background="none" math="0" shadow="0">
      <root>
        <mxCell id="0" />
        <mxCell id="1" parent="0" />
        <mxCell id="hi9G9Pi7xGboPuBEP533-1" value="" style="rounded=0;whiteSpace=wrap;html=1;fillColor=#f5f5f5;fontColor=#333333;strokeColor=#666666;" vertex="1" parent="1">
          <mxGeometry x="170" y="350" width="200" height="120" as="geometry" />
        </mxCell>
        <mxCell id="hi9G9Pi7xGboPuBEP533-3" value="手机/印刷BU" style="text;html=1;align=center;verticalAlign=middle;resizable=0;points=[];autosize=1;strokeColor=none;fillColor=none;" vertex="1" parent="1">
          <mxGeometry x="225" y="355" width="90" height="30" as="geometry" />
        </mxCell>
        <mxCell id="hi9G9Pi7xGboPuBEP533-4" value="ADE" style="rounded=0;whiteSpace=wrap;html=1;fillColor=#fff2cc;strokeColor=#d6b656;" vertex="1" parent="1">
          <mxGeometry x="190" y="410" width="50" height="30" as="geometry" />
        </mxCell>
        <mxCell id="hi9G9Pi7xGboPuBEP533-6" style="edgeStyle=orthogonalEdgeStyle;rounded=0;orthogonalLoop=1;jettySize=auto;html=1;exitX=0;exitY=0.5;exitDx=0;exitDy=0;entryX=1;entryY=0.5;entryDx=0;entryDy=0;" edge="1" parent="1" source="hi9G9Pi7xGboPuBEP533-5" target="hi9G9Pi7xGboPuBEP533-1">
          <mxGeometry relative="1" as="geometry" />
        </mxCell>
        <mxCell id="hi9G9Pi7xGboPuBEP533-36" style="edgeStyle=orthogonalEdgeStyle;rounded=0;orthogonalLoop=1;jettySize=auto;html=1;exitX=1;exitY=0.5;exitDx=0;exitDy=0;" edge="1" parent="1" source="hi9G9Pi7xGboPuBEP533-5" target="hi9G9Pi7xGboPuBEP533-25">
          <mxGeometry relative="1" as="geometry" />
        </mxCell>
        <mxCell id="hi9G9Pi7xGboPuBEP533-5" value="已有行业的新产品、定制产品、预研项目" style="ellipse;whiteSpace=wrap;html=1;" vertex="1" parent="1">
          <mxGeometry x="510" y="370" width="120" height="80" as="geometry" />
        </mxCell>
        <mxCell id="hi9G9Pi7xGboPuBEP533-7" value="需求/问题" style="text;html=1;align=center;verticalAlign=middle;resizable=0;points=[];autosize=1;strokeColor=none;fillColor=none;" vertex="1" parent="1">
          <mxGeometry x="410" y="380" width="70" height="30" as="geometry" />
        </mxCell>
        <mxCell id="hi9G9Pi7xGboPuBEP533-8" value="方案设计" style="text;html=1;align=center;verticalAlign=middle;resizable=0;points=[];autosize=1;strokeColor=none;fillColor=none;" vertex="1" parent="1">
          <mxGeometry x="410" y="410" width="70" height="30" as="geometry" />
        </mxCell>
        <mxCell id="hi9G9Pi7xGboPuBEP533-9" value="ODE" style="rounded=0;whiteSpace=wrap;html=1;fillColor=#dae8fc;strokeColor=#6c8ebf;" vertex="1" parent="1">
          <mxGeometry x="300" y="410" width="50" height="30" as="geometry" />
        </mxCell>
        <mxCell id="hi9G9Pi7xGboPuBEP533-10" value="新行业的新产品开发" style="ellipse;whiteSpace=wrap;html=1;" vertex="1" parent="1">
          <mxGeometry x="510" y="260" width="120" height="80" as="geometry" />
        </mxCell>
        <mxCell id="hi9G9Pi7xGboPuBEP533-11" value="TL-TMT成员" style="rounded=0;whiteSpace=wrap;html=1;dashed=1;" vertex="1" parent="1">
          <mxGeometry x="170" y="220" width="210" height="60" as="geometry" />
        </mxCell>
        <mxCell id="hi9G9Pi7xGboPuBEP533-19" value="" style="rounded=0;whiteSpace=wrap;html=1;fillColor=#f5f5f5;fontColor=#333333;strokeColor=#666666;" vertex="1" parent="1">
          <mxGeometry x="170" y="20" width="200" height="120" as="geometry" />
        </mxCell>
        <mxCell id="hi9G9Pi7xGboPuBEP533-20" value="技术平台" style="text;html=1;align=center;verticalAlign=middle;resizable=0;points=[];autosize=1;strokeColor=none;fillColor=none;" vertex="1" parent="1">
          <mxGeometry x="235" y="25" width="70" height="30" as="geometry" />
        </mxCell>
        <mxCell id="hi9G9Pi7xGboPuBEP533-21" value="ADE" style="rounded=0;whiteSpace=wrap;html=1;fillColor=#fff2cc;strokeColor=#d6b656;" vertex="1" parent="1">
          <mxGeometry x="190" y="90" width="50" height="30" as="geometry" />
        </mxCell>
        <mxCell id="hi9G9Pi7xGboPuBEP533-22" value="TPM" style="rounded=0;whiteSpace=wrap;html=1;fillColor=#ffe6cc;strokeColor=#d79b00;" vertex="1" parent="1">
          <mxGeometry x="290" y="90" width="50" height="30" as="geometry" />
        </mxCell>
        <mxCell id="hi9G9Pi7xGboPuBEP533-23" value="" style="shape=singleArrow;direction=north;whiteSpace=wrap;html=1;dashed=1;" vertex="1" parent="1">
          <mxGeometry x="240" y="280" width="60" height="70" as="geometry" />
        </mxCell>
        <mxCell id="hi9G9Pi7xGboPuBEP533-24" value="" style="shape=singleArrow;direction=north;whiteSpace=wrap;html=1;dashed=1;" vertex="1" parent="1">
          <mxGeometry x="240" y="140" width="60" height="80" as="geometry" />
        </mxCell>
        <mxCell id="hi9G9Pi7xGboPuBEP533-25" value="" style="rounded=0;whiteSpace=wrap;html=1;fillColor=#f5f5f5;fontColor=#333333;strokeColor=#666666;" vertex="1" parent="1">
          <mxGeometry x="724" y="350" width="200" height="120" as="geometry" />
        </mxCell>
        <mxCell id="hi9G9Pi7xGboPuBEP533-26" value="新能源BU" style="text;html=1;align=center;verticalAlign=middle;resizable=0;points=[];autosize=1;strokeColor=none;fillColor=none;" vertex="1" parent="1">
          <mxGeometry x="784" y="355" width="80" height="30" as="geometry" />
        </mxCell>
        <mxCell id="hi9G9Pi7xGboPuBEP533-27" value="ADE" style="rounded=0;whiteSpace=wrap;html=1;fillColor=#fff2cc;strokeColor=#d6b656;" vertex="1" parent="1">
          <mxGeometry x="744" y="410" width="50" height="30" as="geometry" />
        </mxCell>
        <mxCell id="hi9G9Pi7xGboPuBEP533-28" value="ODE" style="rounded=0;whiteSpace=wrap;html=1;fillColor=#f8cecc;strokeColor=#b85450;" vertex="1" parent="1">
          <mxGeometry x="854" y="410" width="50" height="30" as="geometry" />
        </mxCell>
        <mxCell id="hi9G9Pi7xGboPuBEP533-31" value="高级ADE具备视觉方案设计、评审能力&lt;br&gt;ADE具备软件、算法设计与开发能力" style="whiteSpace=wrap;html=1;rounded=1;arcSize=50;align=center;verticalAlign=middle;strokeWidth=1;autosize=1;spacing=4;treeFolding=1;treeMoving=1;newEdgeStyle={&quot;edgeStyle&quot;:&quot;entityRelationEdgeStyle&quot;,&quot;startArrow&quot;:&quot;none&quot;,&quot;endArrow&quot;:&quot;none&quot;,&quot;segment&quot;:10,&quot;curved&quot;:1};dashed=1;" vertex="1" parent="1">
          <mxGeometry x="-110" y="430" width="250" height="50" as="geometry" />
        </mxCell>
        <mxCell id="hi9G9Pi7xGboPuBEP533-32" value="" style="edgeStyle=entityRelationEdgeStyle;startArrow=none;endArrow=none;segment=10;curved=1;rounded=0;exitX=0;exitY=0.75;exitDx=0;exitDy=0;" edge="1" target="hi9G9Pi7xGboPuBEP533-31" parent="1" source="hi9G9Pi7xGboPuBEP533-4">
          <mxGeometry relative="1" as="geometry">
            <mxPoint x="78" y="580" as="sourcePoint" />
          </mxGeometry>
        </mxCell>
        <mxCell id="hi9G9Pi7xGboPuBEP533-34" value="当涉及到框架改动、新平台等复杂定制需求时，&lt;br&gt;技术平台部门指定的TL-TMT成员参与方案设计、方案评审" style="whiteSpace=wrap;html=1;rounded=1;arcSize=50;align=center;verticalAlign=middle;strokeWidth=1;autosize=1;spacing=4;treeFolding=1;treeMoving=1;newEdgeStyle={&quot;edgeStyle&quot;:&quot;entityRelationEdgeStyle&quot;,&quot;startArrow&quot;:&quot;none&quot;,&quot;endArrow&quot;:&quot;none&quot;,&quot;segment&quot;:10,&quot;curved&quot;:1};dashed=1;" vertex="1" parent="1">
          <mxGeometry x="-210" y="260" width="350" height="50" as="geometry" />
        </mxCell>
        <mxCell id="hi9G9Pi7xGboPuBEP533-35" value="" style="edgeStyle=entityRelationEdgeStyle;startArrow=none;endArrow=none;segment=10;curved=1;rounded=0;exitX=0;exitY=0.5;exitDx=0;exitDy=0;" edge="1" target="hi9G9Pi7xGboPuBEP533-34" parent="1" source="hi9G9Pi7xGboPuBEP533-11">
          <mxGeometry relative="1" as="geometry">
            <mxPoint x="150" y="220" as="sourcePoint" />
          </mxGeometry>
        </mxCell>
        <mxCell id="hi9G9Pi7xGboPuBEP533-37" value="技术平台经理" style="rounded=0;whiteSpace=wrap;html=1;fillColor=#dae8fc;strokeColor=#6c8ebf;" vertex="1" parent="1">
          <mxGeometry x="190" y="50" width="150" height="30" as="geometry" />
        </mxCell>
      </root>
    </mxGraphModel>
  </diagram>
</mxfile>
